# xmcd
#
# Track frame offsets:
#	150
#	18942
#	38392
#	58857
#	76647
#	98737
#	119480
#	137912
#	154807
#	173902
#
# Disc length: 2648
#
# Revision: 1
# Processed by: cddbd v1.5.1PL0 Copyright (c) Steve Scherf et al.
# Submitted via: CD2WAV32(EN) R3.19
# Normalized: r0:TRMNUM
#
DISCID=740a560a
DTITLE=MIZUKOSHI KEIKO - PROPORTION
DYEAR=1900
DGENRE=
TTITLE0=TOBERUKAMO SIRENAI
TTITLE1=BLUE EYES
TTITLE2=MABUSII HITO
TTITLE3=MONAMURU
TTITLE4=WATASI WO WASURETE
TTITLE5=FURIMUITE HOHOENDARA
TTITLE6=GETUYOUBI NO OMOIDE
TTITLE7=FAREWELL
TTITLE8=YURUYAKANA JIKAN
TTITLE9=A SONNET
EXTD=
EXTT0=
EXTT1=
EXTT2=
EXTT3=
EXTT4=
EXTT5=
EXTT6=
EXTT7=
EXTT8=
EXTT9=
PLAYORDER=
